<svg width="24" height="24" viewBox="0 0 24 24" fill="none" xmlns="http://www.w3.org/2000/svg">
<path d="M14.143 6.99972V5.57115C14.143 5.19226 13.9925 4.82891 13.7246 4.56099C13.4567 4.29309 13.0933 4.14258 12.7145 4.14258H11.2859" stroke="#5C5F6A" stroke-width="1.42857" stroke-linecap="round" stroke-linejoin="round"/>
<path d="M7.71436 16.9997H4.14293C3.76404 16.9997 3.40068 16.8492 3.13277 16.5813C2.86487 16.3134 2.71436 15.95 2.71436 15.5711V5.57115C2.71436 5.19226 2.86487 4.82891 3.13277 4.56099C3.40068 4.29309 3.76404 4.14258 4.14293 4.14258H5.5715" stroke="#5C5F6A" stroke-width="1.42857" stroke-linecap="round" stroke-linejoin="round"/>
<path d="M19.8573 9.85645H12.7145C11.9255 9.85645 11.2859 10.496 11.2859 11.285V19.8564C11.2859 20.6454 11.9255 21.285 12.7145 21.285H19.8573C20.6463 21.285 21.2859 20.6454 21.2859 19.8564V11.285C21.2859 10.496 20.6463 9.85645 19.8573 9.85645Z" stroke="#5C5F6A" stroke-width="1.42857" stroke-linecap="round" stroke-linejoin="round"/>
<path d="M11.6429 2.71387H5.21436L5.80007 5.02815C5.83576 5.18305 5.92308 5.3212 6.04771 5.41985C6.17234 5.51851 6.32683 5.57182 6.48578 5.57101H10.3715C10.5305 5.57182 10.6849 5.51851 10.8096 5.41985C10.9342 5.3212 11.0215 5.18305 11.0572 5.02815L11.6429 2.71387Z" stroke="#5C5F6A" stroke-width="1.42857" stroke-linecap="round" stroke-linejoin="round"/>
<path d="M14.1428 14.1426H18.4285" stroke="#5C5F6A" stroke-width="1.42857" stroke-linecap="round" stroke-linejoin="round"/>
<path d="M14.1428 17H18.4285" stroke="#5C5F6A" stroke-width="1.42857" stroke-linecap="round" stroke-linejoin="round"/>
</svg>
