<svg width="36" height="36" viewBox="0 0 36 36" fill="none" xmlns="http://www.w3.org/2000/svg">
<path d="M12.6 21.6H30.6L24.39 13.5L20.25 18.9L17.46 15.3L12.6 21.6ZM10.8 28.8C9.81 28.8 8.9628 28.4478 8.2584 27.7434C7.554 27.039 7.2012 26.1912 7.2 25.2V3.6C7.2 2.61 7.5528 1.7628 8.2584 1.0584C8.964 0.354 9.8112 0.0012 10.8 0H32.4C33.39 0 34.2378 0.3528 34.9434 1.0584C35.649 1.764 36.0012 2.6112 36 3.6V25.2C36 26.19 35.6478 27.0378 34.9434 27.7434C34.239 28.449 33.3912 28.8012 32.4 28.8H10.8ZM3.6 36C2.61 36 1.7628 35.6478 1.0584 34.9434C0.354 34.239 0.0012 33.3912 0 32.4V7.2H3.6V32.4H28.8V36H3.6Z" fill="#212A2F"/>
</svg>
