<svg width="16" height="16" viewBox="0 0 16 16" fill="none" xmlns="http://www.w3.org/2000/svg">
<path d="M6.38831 5.73841L7.08829 3.29C7.35058 2.37352 8.64942 2.37352 8.91171 3.29L9.6109 5.73841C9.65517 5.8933 9.73817 6.03435 9.85207 6.14825C9.96598 6.26215 10.107 6.34516 10.2619 6.38943L12.7102 7.08864C13.6267 7.35094 13.6267 8.64981 12.7102 8.91211L10.2619 9.61132C10.107 9.65559 9.96598 9.7386 9.85207 9.8525C9.73817 9.9664 9.65517 10.1075 9.6109 10.2623L8.91171 12.7108C8.64942 13.6272 7.35058 13.6272 7.08829 12.7108L6.3891 10.2623C6.34483 10.1075 6.26183 9.9664 6.14792 9.8525C6.03402 9.7386 5.89298 9.65559 5.7381 9.61132L3.28975 8.91211C2.3733 8.64981 2.3733 7.35094 3.28975 7.08864L5.7381 6.38943C5.89298 6.34516 6.03402 6.26215 6.14792 6.14825C6.26183 6.03435 6.34483 5.8933 6.3891 5.73841M12.8224 11.5612C13.0508 10.8952 14.0107 10.8944 14.2382 11.5612L14.2587 11.6299L14.4926 12.5685L15.4312 12.8032C16.1896 12.9928 16.1896 14.0689 15.4312 14.2585L14.4926 14.4931L14.2587 15.4317C14.0691 16.1894 12.9923 16.1894 12.8027 15.4317L12.568 14.4931L11.6295 14.2585C10.871 14.0689 10.871 12.992 11.6295 12.8032L12.568 12.5685L12.8027 11.6299L12.8224 11.5612ZM13.5303 13.3705C13.4848 13.4314 13.4308 13.4854 13.3699 13.5308C13.4308 13.5763 13.4848 13.6303 13.5303 13.6912C13.5758 13.6303 13.6298 13.5763 13.6907 13.5308C13.6297 13.4851 13.5757 13.4308 13.5303 13.3697M1.7618 0.499481C1.99723 -0.188667 3.01402 -0.165755 3.1981 0.568217L3.43196 1.50682L4.37053 1.74147C5.12897 1.93108 5.12897 3.00715 4.37053 3.19677L3.43196 3.43142L3.1981 4.37002C3.00849 5.12769 1.93166 5.12769 1.74205 4.37002L1.50741 3.43142L0.568833 3.19677C-0.189611 3.00715 -0.189611 1.93029 0.568833 1.74147L1.50741 1.50682L1.74205 0.568217L1.7618 0.499481ZM2.46968 2.30952C2.42416 2.37014 2.37014 2.42389 2.3093 2.46912C2.37025 2.51483 2.42427 2.56911 2.46968 2.63029C2.51509 2.56911 2.56911 2.51483 2.63006 2.46912C2.56917 2.42365 2.51515 2.37042 2.46968 2.30952Z" fill="white"/>
</svg>
