<svg width="52" height="63" viewBox="0 0 52 63" fill="none" xmlns="http://www.w3.org/2000/svg">
<rect width="52" height="63" rx="8" fill="#F2F2F2"/>
<path d="M26 16C26.8335 16 27.6329 16.3266 28.2223 16.908C28.8117 17.4893 29.1429 18.2778 29.1429 19.1C29.1429 19.9222 28.8117 20.7107 28.2223 21.292C27.6329 21.8734 26.8335 22.2 26 22.2C25.1665 22.2 24.3671 21.8734 23.7777 21.292C23.1883 20.7107 22.8571 19.9222 22.8571 19.1C22.8571 18.2778 23.1883 17.4893 23.7777 16.908C24.3671 16.3266 25.1665 16 26 16ZM23.6429 23.75H28.3571C29.1907 23.75 29.9901 24.0766 30.5795 24.658C31.1689 25.2393 31.5 26.0278 31.5 26.85V35.375H29.1429V47H22.8571V35.375H20.5V26.85C20.5 26.0278 20.8311 25.2393 21.4205 24.658C22.0099 24.0766 22.8093 23.75 23.6429 23.75Z" fill="#212A2F"/>
<path d="M23.8433 31L25.1033 28.2H25.6153L26.8793 31H26.3353L25.2513 28.476H25.4593L24.3793 31H23.8433ZM24.4233 30.352L24.5633 29.944H26.0753L26.2153 30.352H24.4233ZM27.2354 31V28.2H27.7554V31H27.2354Z" fill="white"/>
</svg>
