<svg width="20" height="20" viewBox="0 0 20 20" fill="none" xmlns="http://www.w3.org/2000/svg">
<path d="M15 5.8335C15.6454 5.96731 16.1323 6.19065 16.5237 6.5634C17.5 7.49334 17.5 8.99008 17.5 11.9835C17.5 14.9769 17.5 16.4736 16.5237 17.4036C15.5474 18.3335 13.976 18.3335 10.8333 18.3335H9.16667C6.02397 18.3335 4.45262 18.3335 3.47631 17.4036C2.5 16.4736 2.5 14.9769 2.5 11.9835C2.5 8.99008 2.5 7.49334 3.47631 6.5634C3.86765 6.19065 4.35458 5.96731 5 5.8335" stroke="#212A2F" stroke-width="1.25" stroke-linecap="round"/>
<path d="M10.0211 1.66694L10 11.6665M10.0211 1.66694C9.88558 1.66133 9.74925 1.70977 9.62775 1.81227C8.87242 2.44989 7.5 4.10722 7.5 4.10722M10.0211 1.66694C10.1426 1.67198 10.2635 1.72047 10.3723 1.81241C11.1276 2.45015 12.5 4.10722 12.5 4.10722" stroke="#212A2F" stroke-width="1.25" stroke-linecap="round" stroke-linejoin="round"/>
</svg>
